<svg width="270" height="120" viewBox="0 0 270 120" fill="none" xmlns="http://www.w3.org/2000/svg">
<rect x="0.5" y="0.5" width="269" height="119" rx="4.5" fill="white"/>
<path d="M78.4844 60.0014C78.4844 42.486 104.715 29.4433 134.993 29.4433C165.272 29.4433 191.516 42.486 191.516 60.0014C191.516 77.5222 165.272 90.5327 134.993 90.5327C104.715 90.5327 78.4844 77.5222 78.4844 60.0014Z" fill="white"/>
<path fill-rule="evenodd" clip-rule="evenodd" d="M134.993 28C167.012 28 193 42.3389 193 60.0013C193 77.6664 167.012 92 134.993 92C102.988 92 77 77.6664 77 60.0013C77 42.3389 102.988 28 134.993 28ZM134.993 30.8865C104.607 30.8865 79.928 43.9559 79.928 60.0013C79.928 76.0535 104.607 89.0921 134.993 89.0921C165.38 89.0921 190.059 76.0535 190.059 60.0013C190.059 43.9559 165.38 30.8865 134.993 30.8865ZM124.806 63.0736H113.391C113.526 65.8558 115.104 67.1454 117.466 67.1454C119.22 67.1454 120.421 66.1672 120.731 65.1823H124.469C123.511 68.5486 120.731 70.1067 117.304 70.1067C112.446 70.1067 109.424 66.7966 109.424 62.0687C109.424 57.489 112.622 54.0012 117.304 54.0012C122.566 54.0012 125.103 58.375 124.806 63.0736ZM117.196 56.885C114.821 56.885 113.607 58.4499 113.418 60.4517H120.826C120.542 58.3149 119.638 56.885 117.196 56.885ZM174.231 63.0736H162.816C162.937 65.8558 164.53 67.1454 166.877 67.1454C168.645 67.1454 169.846 66.1672 170.156 65.1823H173.894C172.936 68.5486 170.156 70.1067 166.729 70.1067C161.858 70.1067 158.849 66.7966 158.849 62.0687C158.849 57.489 162.047 54.0012 166.729 54.0012C171.991 54.0012 174.528 58.375 174.231 63.0736ZM166.608 56.885C164.246 56.885 163.032 58.4499 162.829 60.4517H170.251C169.967 58.3149 169.063 56.885 166.608 56.885ZM89.4541 69.6925H93.6909V60.5907H102.839V69.6925H107.076V48.5529H102.839V57.2084H93.6909V48.5529H89.4541V69.6925ZM127.14 69.6925H131.134V61.4286C131.134 58.3256 132.241 57.0547 134.535 57.0547C136.504 57.0547 137.395 58.2962 137.395 60.8072V69.6925H141.375V60.2953C141.375 56.5135 140.242 54.0012 135.722 54.0012C133.941 54.0012 132.079 54.8297 131.013 56.5429H130.918V54.4154H127.14V69.6925ZM144.776 69.6925H148.756V61.4192L154.639 69.6925H159.591L153.114 61.1199L158.849 54.4154H154.099L148.756 61.0023V48.5529H144.776V69.6925ZM176.565 69.6925H180.546V48.5529H176.565V69.6925Z" fill="#EC1B23"/>
<rect x="0.5" y="0.5" width="269" height="119" rx="4.5" stroke="#EBEBF1"/>
</svg>
